<?xml version="1.0" encoding="UTF-8"?><svg id="uuid-fcc10e92-71e5-470d-b797-e00cdc5a68f8" xmlns="http://www.w3.org/2000/svg" viewBox="0 0 934.28 377.91"><defs><radialGradient id="uuid-11d616b4-ff19-4e04-a686-4bb0962784d9" cx="205.33" cy="292.2" fx="205.33" fy="292.2" r="372.77" gradientTransform="translate(0 380) scale(1 -1)" gradientUnits="userSpaceOnUse"><stop offset="0" stop-color="#64b858"/><stop offset=".1" stop-color="#5dae52"/><stop offset=".43" stop-color="#4a9745"/><stop offset=".74" stop-color="#3f883d"/><stop offset="1" stop-color="#3c843b"/></radialGradient><filter id="uuid-9d9b07a1-d565-472e-9a2f-7ee6673a9ab1"><feOffset dx="0" dy="0"/><feGaussianBlur result="uuid-59169186-84f5-4674-bf95-c64cc48c78bc" stdDeviation="5"/><feFlood flood-color="#000" flood-opacity=".46"/><feComposite in2="uuid-59169186-84f5-4674-bf95-c64cc48c78bc" operator="in"/><feComposite in="SourceGraphic"/></filter><radialGradient id="uuid-4a13f6fe-06e1-4c70-bdbb-e4723d9ba123" cx="368.75" cy="201.83" fx="345.45" fy="419.77" r="370.08" gradientTransform="translate(0 380) scale(1 -1)" gradientUnits="userSpaceOnUse"><stop offset=".09" stop-color="#00a1ff"/><stop offset="1" stop-color="#0085d1"/></radialGradient><filter id="uuid-dd44d960-445a-4be3-91fb-d585efd87959"><feOffset dx="0" dy="0"/><feGaussianBlur result="uuid-5d92ce8a-d95f-4410-a7b2-f07403e07e78" stdDeviation="5"/><feFlood flood-color="#000" flood-opacity=".46"/><feComposite in2="uuid-5d92ce8a-d95f-4410-a7b2-f07403e07e78" operator="in"/><feComposite in="SourceGraphic"/></filter><radialGradient id="uuid-8d37a513-2063-42f5-98ec-ef8bf8855e0b" cx="207.21" cy="303.6" fx="465.03" fy="144.78" r="302.81" gradientTransform="translate(0 380) scale(1 -1)" gradientUnits="userSpaceOnUse"><stop offset="0" stop-color="#fff"/><stop offset=".06" stop-color="#e8ebec"/><stop offset=".21" stop-color="#abb4b9"/><stop offset=".36" stop-color="#77858d"/><stop offset=".5" stop-color="#4c5f69"/><stop offset=".64" stop-color="#2b414e"/><stop offset=".77" stop-color="#132c3a"/><stop offset=".9" stop-color="#041f2e"/><stop offset="1" stop-color="#001b2a"/></radialGradient></defs><path d="M145.04,6.81L25.41,75.87C9.69,84.95,0,101.73,0,119.89v138.13c0,18.16,9.69,34.93,25.41,44.01l119.62,69.07c15.72,9.08,35.1,9.08,50.82,0l119.62-69.07c15.72-9.08,25.41-25.86,25.41-44.01V119.89c0-18.16-9.69-34.93-25.41-44.01L195.86,6.81c-15.72-9.08-35.1-9.08-50.82,0h0Z" style="fill:url(#uuid-11d616b4-ff19-4e04-a686-4bb0962784d9);"/><g style="filter:url(#uuid-9d9b07a1-d565-472e-9a2f-7ee6673a9ab1);"><path d="M145.04,40.56l-90.39,52.19c-15.72,9.08-25.41,25.86-25.41,44.01v104.37c0,18.16,9.69,34.93,25.41,44.01l90.39,52.19c15.72,9.08,35.1,9.08,50.82,0l90.39-52.19c15.72-9.08,25.41-25.86,25.41-44.01v-104.37c0-18.16-9.69-34.93-25.41-44.01l-90.39-52.19c-15.72-9.08-35.1-9.08-50.82,0h0Z" style="fill:url(#uuid-4a13f6fe-06e1-4c70-bdbb-e4723d9ba123);"/></g><path d="M155.51,192.17v103.83h-24.32v-103.83h-28.06v-20.95h80.44v20.95h-28.06Z" style="fill:#fff;"/><path d="M255.03,199.65c-7.3-9.73-15.9-10.66-20.39-10.66-13.09,0-17.21,8.23-17.21,14.59,0,2.99.94,5.8,3.93,8.42,2.99,2.81,7.11,4.3,14.97,7.11,9.73,3.37,18.89,6.73,25.25,12.53,5.61,5.05,10.66,13.47,10.66,26.19,0,24.32-17.58,40.97-43.4,40.97-23.01,0-36.48-14.03-43.03-23.57l15.9-15.15c5.99,12.16,17.4,16.65,26.19,16.65,11.04,0,19.27-6.73,19.27-17.21,0-4.49-1.5-8.04-4.86-11.22-4.68-4.3-12.16-6.73-19.27-9.17-6.55-2.25-14.4-5.24-20.76-10.85-4.12-3.55-9.92-10.48-9.92-23.2,0-18.33,12.35-36.67,40.03-36.67,7.86,0,22.64,1.5,35.36,14.59l-12.72,16.65h0Z" style="fill:#fff;"/><g style="filter:url(#uuid-dd44d960-445a-4be3-91fb-d585efd87959); isolation:isolate; opacity:.93;"><path d="M154.24,66.18l-82.01,47.35c-10.03,5.79-16.21,16.49-16.21,28.08v94.7c0,11.58,6.18,22.29,16.21,28.08l82.01,47.35c10.03,5.79,22.39,5.79,32.42,0l82.01-47.35c10.03-5.79,16.21-16.49,16.21-28.08v-94.7c0-11.58-6.18-22.29-16.21-28.08l-82.01-47.35c-10.03-5.79-22.39-5.79-32.42,0h0Z" style="fill:url(#uuid-8d37a513-2063-42f5-98ec-ef8bf8855e0b);"/></g><path d="M242.23,242.62c-2.42,5.96-11.54,25.13-39.66,25.13-13.03,0-22.9-3.72-30.91-11.36-8.94-8.38-12.66-18.8-12.66-31.47,0-16.01,6.52-25.88,12.29-31.65,9.5-9.31,20.67-11.36,30.35-11.36,16.38,0,25.88,6.52,31.47,13.22,8.56,10.24,9.68,22.9,9.68,31.65v1.86h-60.32c0,4.84,1.3,10.05,3.91,13.59,2.42,3.35,7.45,7.63,16.2,7.63s15.08-4.1,18.8-10.61l20.85,3.35v.02ZM221.38,214.14c-1.86-10.99-10.8-16.2-19.18-16.2s-17.13,5.4-18.99,16.2h38.17Z" style="fill:#fff;"/><path d="M362.02,139v-40.02h27v10.98h-12.48v3.72h11.34v10.5h-11.34v3.84h12.84v10.98h-27.36Z"/><path d="M392.62,110.98h15.72l2.04,3.96c.3.54.48,1.08.6,1.8h.36c.18-.78.42-1.26.66-1.8l2.04-3.96h15.66l-10.62,13.44,11.4,14.58h-16.08l-2.52-4.56c-.3-.48-.48-.96-.6-1.62h-.3c-.12.6-.3,1.14-.54,1.62l-2.46,4.56h-16.5l11.82-14.58-10.68-13.44Z"/><path d="M433.24,152.74v-41.76h13.02v1.56c0,.84-.12,1.8-.36,2.46l-.06.18.42.12c.78-1.32,1.86-2.52,2.88-3.3,1.26-.9,3.12-1.8,5.7-1.8,3.24,0,6.06,1.26,7.98,3.18,2.76,2.76,4.08,7.26,4.08,11.46,0,5.88-2.46,9.54-4.38,11.58-2.16,2.28-4.5,3.36-7.44,3.36-1.8,0-3.72-.42-5.52-1.62-1.02-.72-2.1-1.68-2.88-3h-.42c.54,2.16.66,3.6.66,5.46v12.12h-13.68ZM447.46,128.5c.66.72,1.44.9,2.34.9.96,0,1.74-.3,2.4-.9.9-.84,1.38-2.1,1.38-3.36s-.54-2.52-1.32-3.3c-.48-.48-1.32-1.02-2.52-1.02-.9,0-1.68.36-2.22.84-.9.84-1.26,2.4-1.26,3.48,0,1.44.42,2.58,1.2,3.36Z"/><path d="M471.46,139v-28.02h13.74v1.74c0,.66-.12,1.26-.36,1.86h.24c.9-1.62,2.22-2.76,3.42-3.42,2.64-1.44,6.06-1.26,6.24-1.26v14.22c-1.8-1.14-2.82-1.56-4.26-1.56-1.56,0-2.82.54-3.72,1.32-1.44,1.26-1.68,2.76-1.68,4.14v10.98h-13.62Z"/><path d="M511.3,127.24c-.06,1.32.24,3.24,1.02,4.08.3.36.96.78,2.04.78.9,0,1.56-.36,2.04-.78.42-.36.72-1.02.9-1.62h13.32c-.66,2.1-1.62,3.48-2.82,4.8-2.82,3.18-6.3,5.28-12.84,5.28-4.26,0-9.48-.84-13.26-4.62-1.74-1.74-3.96-4.92-3.96-9.78,0-3.96,1.5-7.86,4.2-10.56,2.64-2.58,6.84-4.62,12.48-4.62,5.34,0,9.3,1.74,12.06,4.44,3,2.88,4.68,7.14,4.68,11.04v1.56h-19.86ZM517.84,121.42c-.06-.96-.48-2.16-1.2-2.82-.48-.48-1.26-.78-2.16-.78-.72,0-1.5.3-1.98.72-.66.6-1.08,1.92-1.08,2.88h6.42Z"/><path d="M556.78,120.46c-.96-.72-1.74-1.14-2.82-1.62s-2.16-.84-3.48-.84c-.48,0-1.08.12-1.5.42-.3.24-.54.66-.54,1.08,0,.48.24.72.42.9.36.3.9.3,1.62.48l2.76.6c1.86.42,3.96,1.02,5.52,2.64.9.96,1.98,2.64,1.98,5.22,0,2.82-1.08,5.1-2.82,6.78-3.24,3.18-7.44,3.66-10.62,3.66-5.16,0-8.76-1.32-11.1-2.28l-1.98-.84,3.48-8.52,1.92,1.2c1.8,1.14,3.96,1.92,5.58,1.92.54,0,1.32-.12,1.86-.48.42-.3.54-.6.54-1.08,0-.54-.18-.84-.54-1.14-.36-.24-.9-.42-1.92-.6l-1.98-.3c-1.44-.24-3.36-.72-4.98-2.34-1.62-1.56-2.16-3.36-2.16-5.34,0-3.18,1.38-5.46,3.96-7.2,3.18-2.22,6.66-2.58,9.54-2.58,3.06,0,6.6.54,10.56,2.4l-3.3,7.86Z"/><path d="M586,120.46c-.96-.72-1.74-1.14-2.82-1.62s-2.16-.84-3.48-.84c-.48,0-1.08.12-1.5.42-.3.24-.54.66-.54,1.08,0,.48.24.72.42.9.36.3.9.3,1.62.48l2.76.6c1.86.42,3.96,1.02,5.52,2.64.9.96,1.98,2.64,1.98,5.22,0,2.82-1.08,5.1-2.82,6.78-3.24,3.18-7.44,3.66-10.62,3.66-5.16,0-8.76-1.32-11.1-2.28l-1.98-.84,3.48-8.52,1.92,1.2c1.8,1.14,3.96,1.92,5.58,1.92.54,0,1.32-.12,1.86-.48.42-.3.54-.6.54-1.08,0-.54-.18-.84-.54-1.14-.36-.24-.9-.42-1.92-.6l-1.98-.3c-1.44-.24-3.36-.72-4.98-2.34-1.62-1.56-2.16-3.36-2.16-5.34,0-3.18,1.38-5.46,3.96-7.2,3.18-2.22,6.66-2.58,9.54-2.58,3.06,0,6.6.54,10.56,2.4l-3.3,7.86Z"/><path d="M609.16,139v-17.52l-3.42.24v-10.74l3.42.24v-10.2h13.62v10.2l4.62-.24v10.74l-4.62-.24v17.52h-13.62Z"/><path d="M629.68,110.98h14.7l3.36,11.52c.36,1.26.54,2.34.6,3.66h.36c.06-1.32.3-2.76.6-3.84l3.24-11.34h14.4l-19.02,41.76h-14.46l8.28-16.56-12.06-25.2Z"/><path d="M669.22,152.74v-41.76h13.02v1.56c0,.84-.12,1.8-.36,2.46l-.06.18.42.12c.78-1.32,1.86-2.52,2.88-3.3,1.26-.9,3.12-1.8,5.7-1.8,3.24,0,6.06,1.26,7.98,3.18,2.76,2.76,4.08,7.26,4.08,11.46,0,5.88-2.46,9.54-4.38,11.58-2.16,2.28-4.5,3.36-7.44,3.36-1.8,0-3.72-.42-5.52-1.62-1.02-.72-2.1-1.68-2.88-3h-.42c.54,2.16.66,3.6.66,5.46v12.12h-13.68ZM683.44,128.5c.66.72,1.44.9,2.34.9.96,0,1.74-.3,2.4-.9.9-.84,1.38-2.1,1.38-3.36s-.54-2.52-1.32-3.3c-.48-.48-1.32-1.02-2.52-1.02-.9,0-1.68.36-2.22.84-.9.84-1.26,2.4-1.26,3.48,0,1.44.42,2.58,1.2,3.36Z"/><path d="M719.8,127.24c-.06,1.32.24,3.24,1.02,4.08.3.36.96.78,2.04.78.9,0,1.56-.36,2.04-.78.42-.36.72-1.02.9-1.62h13.32c-.66,2.1-1.62,3.48-2.82,4.8-2.82,3.18-6.3,5.28-12.84,5.28-4.26,0-9.48-.84-13.26-4.62-1.74-1.74-3.96-4.92-3.96-9.78,0-3.96,1.5-7.86,4.2-10.56,2.64-2.58,6.84-4.62,12.48-4.62,5.34,0,9.3,1.74,12.06,4.44,3,2.88,4.68,7.14,4.68,11.04v1.56h-19.86ZM726.34,121.42c-.06-.96-.48-2.16-1.2-2.82-.48-.48-1.26-.78-2.16-.78-.72,0-1.5.3-1.98.72-.66.6-1.08,1.92-1.08,2.88h6.42Z"/><path d="M765.28,120.46c-.96-.72-1.74-1.14-2.82-1.62s-2.16-.84-3.48-.84c-.48,0-1.08.12-1.5.42-.3.24-.54.66-.54,1.08,0,.48.24.72.42.9.36.3.9.3,1.62.48l2.76.6c1.86.42,3.96,1.02,5.52,2.64.9.96,1.98,2.64,1.98,5.22,0,2.82-1.08,5.1-2.82,6.78-3.24,3.18-7.44,3.66-10.62,3.66-5.16,0-8.76-1.32-11.1-2.28l-1.98-.84,3.48-8.52,1.92,1.2c1.8,1.14,3.96,1.92,5.58,1.92.54,0,1.32-.12,1.86-.48.42-.3.54-.6.54-1.08,0-.54-.18-.84-.54-1.14-.36-.24-.9-.42-1.92-.6l-1.98-.3c-1.44-.24-3.36-.72-4.98-2.34-1.62-1.56-2.16-3.36-2.16-5.34,0-3.18,1.38-5.46,3.96-7.2,3.18-2.22,6.66-2.58,9.54-2.58,3.06,0,6.6.54,10.56,2.4l-3.3,7.86Z"/><path d="M794.98,138.34c-1.56.78-3.66,1.44-6.9,1.44-6.18,0-9.84-2.22-11.82-4.14-2.22-2.16-4.02-5.58-4.02-10.26s1.8-8.64,4.32-11.16c3.24-3.24,7.2-4.02,10.86-4.02,2.34,0,5.04.36,7.92,1.44v11.4c-2.28-2.04-4.14-2.22-5.1-2.22-1.02,0-2.1.18-3,1.08-.72.78-1.14,1.92-1.14,2.94,0,1.2.42,2.22,1.14,2.94.72.72,1.68,1.2,2.88,1.2,1.92,0,3.96-.9,5.4-2.22l-.54,11.58Z"/><path d="M800.08,139v-28.02h13.74v1.74c0,.66-.12,1.26-.36,1.86h.24c.9-1.62,2.22-2.76,3.42-3.42,2.64-1.44,6.06-1.26,6.24-1.26v14.22c-1.8-1.14-2.82-1.56-4.26-1.56-1.56,0-2.82.54-3.72,1.32-1.44,1.26-1.68,2.76-1.68,4.14v10.98h-13.62Z"/><path d="M839.26,106.66c-1.26,1.32-3.48,2.16-5.82,2.16s-4.56-.84-5.82-2.16c-1.02-1.08-1.74-2.7-1.74-4.44s.72-3.36,1.74-4.44c1.26-1.32,3.48-2.16,5.82-2.16s4.56.84,5.82,2.16c1.02,1.08,1.74,2.7,1.74,4.44s-.72,3.36-1.74,4.44ZM826.66,139v-28.02h13.62v28.02h-13.62Z"/><path d="M846.04,152.74v-41.76h13.02v1.56c0,.84-.12,1.8-.36,2.46l-.06.18.42.12c.78-1.32,1.86-2.52,2.88-3.3,1.26-.9,3.12-1.8,5.7-1.8,3.24,0,6.06,1.26,7.98,3.18,2.76,2.76,4.08,7.26,4.08,11.46,0,5.88-2.46,9.54-4.38,11.58-2.16,2.28-4.5,3.36-7.44,3.36-1.8,0-3.72-.42-5.52-1.62-1.02-.72-2.1-1.68-2.88-3h-.42c.54,2.16.66,3.6.66,5.46v12.12h-13.68ZM860.26,128.5c.66.72,1.44.9,2.34.9.96,0,1.74-.3,2.4-.9.9-.84,1.38-2.1,1.38-3.36s-.54-2.52-1.32-3.3c-.48-.48-1.32-1.02-2.52-1.02-.9,0-1.68.36-2.22.84-.9.84-1.26,2.4-1.26,3.48,0,1.44.42,2.58,1.2,3.36Z"/><path d="M885.88,139v-17.52l-3.42.24v-10.74l3.42.24v-10.2h13.62v10.2l4.62-.24v10.74l-4.62-.24v17.52h-13.62Z"/><path d="M361.9,211v-17.52l-3.42.24v-10.74l3.42.24v-10.2h13.62v10.2l4.62-.24v10.74l-4.62-.24v17.52h-13.62Z"/><path d="M396.46,199.24c-.06,1.32.24,3.24,1.02,4.08.3.36.96.78,2.04.78.9,0,1.56-.36,2.04-.78.42-.36.72-1.02.9-1.62h13.32c-.66,2.1-1.62,3.48-2.82,4.8-2.82,3.18-6.3,5.28-12.84,5.28-4.26,0-9.48-.84-13.26-4.62-1.74-1.74-3.96-4.92-3.96-9.78,0-3.96,1.5-7.86,4.2-10.56,2.64-2.58,6.84-4.62,12.48-4.62,5.34,0,9.3,1.74,12.06,4.44,3,2.88,4.68,7.14,4.68,11.04v1.56h-19.86ZM403,193.42c-.06-.96-.48-2.16-1.2-2.82-.48-.48-1.26-.78-2.16-.78-.72,0-1.5.3-1.98.72-.66.6-1.08,1.92-1.08,2.88h6.42Z"/><path d="M420.88,211v-28.02h12.84v2.16c0,.84-.24,1.8-.48,2.58l.42.12c.54-1.32,1.5-2.82,2.64-3.78,1.5-1.2,3.72-1.86,5.7-1.86s3.78.6,4.98,1.56c1.26.96,2.4,2.52,3,4.44h.36c.48-1.5,1.5-3.12,2.82-4.2,1.8-1.5,4.02-1.8,5.58-1.8,3.48,0,5.58,1.32,6.84,2.58,1.86,1.92,2.94,4.98,2.94,8.1v18.12h-13.2v-15.42c0-.66-.06-1.5-.66-2.1-.3-.3-.72-.48-1.2-.48-.42,0-.96.12-1.44.6-.66.66-.72,1.38-.72,1.98v15.42h-13.2v-15.78c0-.66-.18-1.2-.48-1.62-.18-.24-.66-.6-1.38-.6-.66,0-1.2.24-1.56.66-.54.66-.6,1.8-.6,2.4v14.94h-13.2Z"/><path d="M474.22,224.74v-41.76h13.02v1.56c0,.84-.12,1.8-.36,2.46l-.06.18.42.12c.78-1.32,1.86-2.52,2.88-3.3,1.26-.9,3.12-1.8,5.7-1.8,3.24,0,6.06,1.26,7.98,3.18,2.76,2.76,4.08,7.26,4.08,11.46,0,5.88-2.46,9.54-4.38,11.58-2.16,2.28-4.5,3.36-7.44,3.36-1.8,0-3.72-.42-5.52-1.62-1.02-.72-2.1-1.68-2.88-3h-.42c.54,2.16.66,3.6.66,5.46v12.12h-13.68ZM488.44,200.5c.66.72,1.44.9,2.34.9.96,0,1.74-.3,2.4-.9.9-.84,1.38-2.1,1.38-3.36s-.54-2.52-1.32-3.3c-.48-.48-1.32-1.02-2.52-1.02-.9,0-1.68.36-2.22.84-.9.84-1.26,2.4-1.26,3.48,0,1.44.42,2.58,1.2,3.36Z"/><path d="M512.44,211v-43.74h13.62v43.74h-13.62Z"/><path d="M551.38,186.16c-.42-1.08-.48-1.92-.48-2.4v-.78h13.5v28.02h-13.44l.06-.96c.06-.78.3-1.86.54-2.58h-.42c-3.18,3.96-6.66,4.32-8.4,4.32-2.82,0-5.52-.84-7.92-3.3-2.4-2.46-4.2-6.24-4.2-11.34s1.74-8.94,4.38-11.58c2.1-2.1,4.74-3.36,8.28-3.36,1.74,0,4.98.36,7.8,4.14l.3-.18ZM545.38,199.9c.66.66,1.44.96,2.34.96.84,0,1.62-.24,2.34-.9.78-.78,1.32-1.86,1.32-3.12s-.54-2.34-1.2-2.94c-.6-.54-1.38-.9-2.34-.9-.9,0-1.8.3-2.46.96s-1.2,1.68-1.2,3,.54,2.28,1.2,2.94Z"/><path d="M572.68,211v-17.52l-3.42.24v-10.74l3.42.24v-10.2h13.62v10.2l4.62-.24v10.74l-4.62-.24v17.52h-13.62Z"/><path d="M607.24,199.24c-.06,1.32.24,3.24,1.02,4.08.3.36.96.78,2.04.78.9,0,1.56-.36,2.04-.78.42-.36.72-1.02.9-1.62h13.32c-.66,2.1-1.62,3.48-2.82,4.8-2.82,3.18-6.3,5.28-12.84,5.28-4.26,0-9.48-.84-13.26-4.62-1.74-1.74-3.96-4.92-3.96-9.78,0-3.96,1.5-7.86,4.2-10.56,2.64-2.58,6.84-4.62,12.48-4.62,5.34,0,9.3,1.74,12.06,4.44,3,2.88,4.68,7.14,4.68,11.04v1.56h-19.86ZM613.78,193.42c-.06-.96-.48-2.16-1.2-2.82-.48-.48-1.26-.78-2.16-.78-.72,0-1.5.3-1.98.72-.66.6-1.08,1.92-1.08,2.88h6.42Z"/><path d="M361.6,271.46v-26.96l22.4,23.44v-23.16h1.76v27.36l-22.4-23.44v22.76h-1.76Z" style="fill:#7f7f7f;"/><path d="M408.32,263.35c0,4.84-3.72,8.56-8.56,8.56s-8.56-3.72-8.56-8.56,3.72-8.56,8.56-8.56,8.56,3.72,8.56,8.56ZM406.64,263.35c0-3.96-2.96-7.04-6.88-7.04s-6.88,3.08-6.88,7.04,2.96,7.04,6.88,7.04,6.88-3.08,6.88-7.04Z" style="fill:#7f7f7f;"/><path d="M426.32,242.31h1.6v29.16h-1.6v-2.92c-1.64,2.52-4.24,3.36-6.32,3.36-4.12,0-8-2.96-8-8.68s4.04-8.44,8-8.44c2.96,0,5.04,1.36,6.32,3.2v-15.68ZM413.68,263.19c0,4.76,3.12,7.2,6.4,7.2s6.32-2.44,6.32-7.2c0-3.8-2.36-6.88-6.4-6.88-3.36,0-6.32,2.32-6.32,6.88Z" style="fill:#7f7f7f;"/><path d="M434.32,263.51c0,4.16,3.04,6.88,6.48,6.88,2.64,0,4.64-1.56,5.68-3.72l1.36.8c-.96,1.84-3.12,4.44-7.16,4.44-5.08,0-8.04-3.76-8.04-8.52,0-5.68,3.92-8.6,7.92-8.6,4.4,0,7.72,3.52,7.72,8.72h-13.96ZM446.6,261.99c-.4-3.24-2.8-5.68-6.04-5.68s-5.68,2.52-6.12,5.68h12.16Z" style="fill:#7f7f7f;"/><path d="M457.04,244.79v21.48c0,1.24-.04,3.08-1.32,4.4-.76.76-1.84,1.24-3.32,1.24-1.24,0-2.08-.32-2.92-1-.84-.68-1.36-1.48-1.56-1.8l1.24-1.04c.32.6.76,1.16,1.24,1.52.68.52,1.4.72,2.08.72.72,0,1.44-.28,1.92-.76.84-.84.88-2,.88-3v-21.76h1.76Z" style="fill:#7f7f7f;"/><path d="M476.4,249.31c-1.64-3.2-4.52-3.28-5.24-3.28-3.16,0-4.96,2.28-4.96,4.96,0,2.88,2,3.84,4.68,5.16,2.64,1.28,3.96,1.84,5.32,2.8,1.16.8,2.84,2.2,2.84,5.16,0,4.48-3.76,7.8-8.32,7.8-3.44,0-5.2-1.64-6.2-2.8-1.04-1.2-1.48-2.24-1.72-2.92l1.52-.72c.36,1.04,1.04,2.08,1.44,2.56,1.2,1.52,3.16,2.28,5,2.28,3.6,0,6.44-2.64,6.44-6.16,0-1.44-.56-2.96-2.6-4.2-.76-.44-2.32-1.24-4.52-2.32-2.64-1.28-3.96-2-4.88-3.52-.6-1-.84-2-.84-3.04,0-3.08,2.08-6.64,6.84-6.64,2.68,0,5.12,1.28,6.48,3.8l-1.28,1.08Z" style="fill:#7f7f7f;"/><path d="M499.76,246.39v25.08h-1.76v-25.08h-6.92v-1.6h15.6v1.6h-6.92Z" style="fill:#7f7f7f;"/><path d="M512.4,271.74l-7.76-16.6h1.84l6.84,14.52,5.96-14.52h1.84l-10.72,25.52h-1.84l3.84-8.92Z" style="fill:#7f7f7f;"/><path d="M525.92,280.66h-1.6v-25.52h1.6v2.84c1.56-2.12,3.8-3.2,6.4-3.2,4.92,0,7.92,3.68,7.92,8.4s-3.04,8.72-8,8.72c-4.04,0-5.84-2.56-6.32-3.36v12.12ZM538.56,263.19c0-4.48-2.96-6.88-6.32-6.88s-6.4,2.28-6.4,6.8c0,4.08,2.24,7.28,6.36,7.28s6.36-3.2,6.36-7.2Z" style="fill:#7f7f7f;"/><path d="M545.6,263.51c0,4.16,3.04,6.88,6.48,6.88,2.64,0,4.64-1.56,5.68-3.72l1.36.8c-.96,1.84-3.12,4.44-7.16,4.44-5.08,0-8.04-3.76-8.04-8.52,0-5.68,3.92-8.6,7.92-8.6,4.4,0,7.72,3.52,7.72,8.72h-13.96ZM557.88,261.99c-.4-3.24-2.8-5.68-6.04-5.68s-5.68,2.52-6.12,5.68h12.16Z" style="fill:#7f7f7f;"/><path d="M577.16,249.31c-1.64-3.2-4.52-3.28-5.24-3.28-3.16,0-4.96,2.28-4.96,4.96,0,2.88,2,3.84,4.68,5.16,2.64,1.28,3.96,1.84,5.32,2.8,1.16.8,2.84,2.2,2.84,5.16,0,4.48-3.76,7.8-8.32,7.8-3.44,0-5.2-1.64-6.2-2.8-1.04-1.2-1.48-2.24-1.72-2.92l1.52-.72c.36,1.04,1.04,2.08,1.44,2.56,1.2,1.52,3.16,2.28,5,2.28,3.6,0,6.44-2.64,6.44-6.16,0-1.44-.56-2.96-2.6-4.2-.76-.44-2.32-1.24-4.52-2.32-2.64-1.28-3.96-2-4.88-3.52-.6-1-.84-2-.84-3.04,0-3.08,2.08-6.64,6.84-6.64,2.68,0,5.12,1.28,6.48,3.8l-1.28,1.08Z" style="fill:#7f7f7f;"/><path d="M597.92,258.99c-1.08-1.24-2.96-2.68-5.64-2.68-4,0-6.8,3.08-6.8,7.08,0,4.68,3.56,7,6.72,7,2.6,0,4.64-1.52,5.92-2.92v2.16c-1.08.96-3.08,2.28-5.96,2.28-4.92,0-8.36-3.64-8.36-8.48s3.24-8.64,8.48-8.64c1.16,0,3.4.2,5.64,2.08v2.12Z" style="fill:#7f7f7f;"/><path d="M602.52,255.15h1.6v2.12c.6-1.4,1.84-2.48,3.6-2.48.44,0,1.12.08,1.72.4l-.8,1.44c-.16-.12-.48-.32-1.2-.32-3.28,0-3.32,4.36-3.32,6.4v8.76h-1.6v-16.32Z" style="fill:#7f7f7f;"/><path d="M612.28,249.71c0-.88.64-1.48,1.44-1.48s1.44.6,1.44,1.48-.64,1.48-1.44,1.48-1.44-.6-1.44-1.48ZM614.52,255.15v16.32h-1.6v-16.32h1.6Z" style="fill:#7f7f7f;"/><path d="M621.88,280.66h-1.6v-25.52h1.6v2.84c1.56-2.12,3.8-3.2,6.4-3.2,4.92,0,7.92,3.68,7.92,8.4s-3.04,8.72-8,8.72c-4.04,0-5.84-2.56-6.32-3.36v12.12ZM634.52,263.19c0-4.48-2.96-6.88-6.32-6.88s-6.4,2.28-6.4,6.8c0,4.08,2.24,7.28,6.36,7.28s6.36-3.2,6.36-7.2Z" style="fill:#7f7f7f;"/><path d="M642.64,256.67v14.8h-1.6v-14.8h-1.8v-1.52h1.8v-5.84h1.6v5.84h2.84v1.52h-2.84Z" style="fill:#7f7f7f;"/><path d="M656.44,257.55h7.88v-7.28h1.6v7.28h7.88v1.52h-7.88v7.28h-1.6v-7.28h-7.88v-1.52Z" style="fill:#7f7f7f;"/><path d="M700.84,246.39h-11.04v9.68h10.8v1.6h-10.8v12.2h11.04v1.6h-12.8v-26.68h12.8v1.6Z" style="fill:#7f7f7f;"/><path d="M709.92,262.91l-6.04-7.76h1.96l5.16,6.72,5.08-6.72h1.96l-5.92,7.76,6.56,8.56h-1.96l-5.72-7.52-5.72,7.52h-1.96l6.6-8.56Z" style="fill:#7f7f7f;"/><path d="M723.48,280.66h-1.6v-25.52h1.6v2.84c1.56-2.12,3.8-3.2,6.4-3.2,4.92,0,7.92,3.68,7.92,8.4s-3.04,8.72-8,8.72c-4.04,0-5.84-2.56-6.32-3.36v12.12ZM736.12,263.19c0-4.48-2.96-6.88-6.32-6.88s-6.4,2.28-6.4,6.8c0,4.08,2.24,7.28,6.36,7.28s6.36-3.2,6.36-7.2Z" style="fill:#7f7f7f;"/><path d="M742.52,255.15h1.6v2.12c.6-1.4,1.84-2.48,3.6-2.48.44,0,1.12.08,1.72.4l-.8,1.44c-.16-.12-.48-.32-1.2-.32-3.28,0-3.32,4.36-3.32,6.4v8.76h-1.6v-16.32Z" style="fill:#7f7f7f;"/><path d="M753.56,263.51c0,4.16,3.04,6.88,6.48,6.88,2.64,0,4.64-1.56,5.68-3.72l1.36.8c-.96,1.84-3.12,4.44-7.16,4.44-5.08,0-8.04-3.76-8.04-8.52,0-5.68,3.92-8.6,7.92-8.6,4.4,0,7.72,3.52,7.72,8.72h-13.96ZM765.84,261.99c-.4-3.24-2.8-5.68-6.04-5.68s-5.68,2.52-6.12,5.68h12.16Z" style="fill:#7f7f7f;"/><path d="M779.2,258.15c-.56-1.28-1.68-1.84-2.84-1.84-1.84,0-2.76,1.4-2.76,2.6,0,1.6,1.28,2.12,2.88,2.76,1.64.64,3.16,1.08,4.2,2.4.68.84.84,1.72.84,2.64,0,3.72-2.8,5.2-5.32,5.2-2.72,0-4.96-1.6-5.64-4.32l1.56-.48c.56,2.16,2.28,3.28,4.08,3.28,2.08,0,3.64-1.48,3.64-3.6,0-1.84-1.16-2.52-3.64-3.52-1.64-.68-2.84-1.2-3.56-2.16-.36-.48-.72-1.16-.72-2.12,0-2.48,1.88-4.2,4.36-4.2,1.92,0,3.52.88,4.28,2.64l-1.36.72Z" style="fill:#7f7f7f;"/><path d="M792.56,258.15c-.56-1.28-1.68-1.84-2.84-1.84-1.84,0-2.76,1.4-2.76,2.6,0,1.6,1.28,2.12,2.88,2.76,1.64.64,3.16,1.08,4.2,2.4.68.84.84,1.72.84,2.64,0,3.72-2.8,5.2-5.32,5.2-2.72,0-4.96-1.6-5.64-4.32l1.56-.48c.56,2.16,2.28,3.28,4.08,3.28,2.08,0,3.64-1.48,3.64-3.6,0-1.84-1.16-2.52-3.64-3.52-1.64-.68-2.84-1.2-3.56-2.16-.36-.48-.72-1.16-.72-2.12,0-2.48,1.88-4.2,4.36-4.2,1.92,0,3.52.88,4.28,2.64l-1.36.72Z" style="fill:#7f7f7f;"/><path d="M810,256.67v14.8h-1.6v-14.8h-1.8v-1.52h1.8v-5.84h1.6v5.84h2.84v1.52h-2.84Z" style="fill:#7f7f7f;"/><path d="M816.68,263.51c0,4.16,3.04,6.88,6.48,6.88,2.64,0,4.64-1.56,5.68-3.72l1.36.8c-.96,1.84-3.12,4.44-7.16,4.44-5.08,0-8.04-3.76-8.04-8.52,0-5.68,3.92-8.6,7.92-8.6,4.4,0,7.72,3.52,7.72,8.72h-13.96ZM828.96,261.99c-.4-3.24-2.8-5.68-6.04-5.68s-5.68,2.52-6.12,5.68h12.16Z" style="fill:#7f7f7f;"/><path d="M835.36,255.15h1.6v2.04c1.24-2.12,3.12-2.4,4.24-2.4,3.2,0,4.24,2.12,4.56,2.96.92-1.96,2.68-2.96,4.84-2.96,1.8,0,2.96.64,3.68,1.36,1.32,1.32,1.4,3.12,1.4,4.44v10.88h-1.6v-10.88c0-1.08-.08-2.44-.96-3.36-.72-.76-1.68-.92-2.44-.92-4.32,0-4.36,4.32-4.36,5.32v9.84h-1.6v-10.48c0-1.04-.08-4.68-3.6-4.68-2.84,0-4.16,2.48-4.16,5.72v9.44h-1.6v-16.32Z" style="fill:#7f7f7f;"/><path d="M863.04,280.66h-1.6v-25.52h1.6v2.84c1.56-2.12,3.8-3.2,6.4-3.2,4.92,0,7.92,3.68,7.92,8.4s-3.04,8.72-8,8.72c-4.04,0-5.84-2.56-6.32-3.36v12.12ZM875.68,263.19c0-4.48-2.96-6.88-6.32-6.88s-6.4,2.28-6.4,6.8c0,4.08,2.24,7.28,6.36,7.28s6.36-3.2,6.36-7.2Z" style="fill:#7f7f7f;"/><path d="M883.68,242.31v29.16h-1.6v-29.16h1.6Z" style="fill:#7f7f7f;"/><path d="M902.72,255.15h1.6v16.32h-1.6v-2.92c-1.64,2.52-4.24,3.36-6.36,3.36-4.28,0-7.96-3.24-7.96-8.6,0-5.04,3.2-8.52,7.96-8.52,2.56,0,4.8,1,6.36,3.2v-2.84ZM890.08,263.19c0,3.68,2.28,7.2,6.4,7.2s6.32-3.44,6.32-7.2c0-4.84-3.56-6.88-6.36-6.88-3.24,0-6.36,2.44-6.36,6.88Z" style="fill:#7f7f7f;"/><path d="M911.8,256.67v14.8h-1.6v-14.8h-1.8v-1.52h1.8v-5.84h1.6v5.84h2.84v1.52h-2.84Z" style="fill:#7f7f7f;"/><path d="M918.48,263.51c0,4.16,3.04,6.88,6.48,6.88,2.64,0,4.64-1.56,5.68-3.72l1.36.8c-.96,1.84-3.12,4.44-7.16,4.44-5.08,0-8.04-3.76-8.04-8.52,0-5.68,3.92-8.6,7.92-8.6,4.4,0,7.72,3.52,7.72,8.72h-13.96ZM930.76,261.99c-.4-3.24-2.8-5.68-6.04-5.68s-5.68,2.52-6.12,5.68h12.16Z" style="fill:#7f7f7f;"/></svg>
